/* XPM */
static char *result[] = {
/* columns rows colors chars-per-pixel */
"64 64 77 1 ",
"  c #2C071A",
". c #3B0416",
"X c #34071B",
"o c #3C071C",
"O c #38081F",
"+ c #4E0517",
"@ c #42061B",
"# c #4B061D",
"$ c #570517",
"% c #5F0414",
"& c #55051A",
"* c #5B061B",
"= c #7D020E",
"- c #620517",
"; c #6A0515",
": c #63061A",
"> c #6B061C",
", c #740416",
"< c #7B0311",
"1 c #73031D",
"2 c #7A051C",
"3 c #480720",
"4 c #4E0821",
"5 c #530622",
"6 c #5D0A25",
"7 c #5A0C2C",
"8 c #620521",
"9 c #6B0420",
"0 c #6C0923",
"q c #890007",
"w c #83010C",
"e c #8B0009",
"r c #920006",
"t c #9C0006",
"y c #94000A",
"u c #9C0009",
"i c #820211",
"p c #8B0217",
"a c #87021B",
"s c #8B061A",
"d c #9C0215",
"f c #90051B",
"g c #A10006",
"h c #AB0006",
"j c #A3010A",
"k c #AB0008",
"l c #B60004",
"z c #BC0004",
"x c #B40008",
"c c #A30216",
"v c #A5051B",
"b c #AA071E",
"n c #B50216",
"m c #BC0215",
"M c #B5051D",
"N c #BB061A",
"B c #C30004",
"V c #CB0005",
"C c #D40005",
"Z c #DD0007",
"A c #D4010C",
"S c #DB000A",
"D c #C50216",
"F c #CB0316",
"G c #C6061A",
"H c #CC0518",
"J c #D60113",
"K c #DB0213",
"L c #D00519",
"P c #E20007",
"I c #E50009",
"U c #EB0009",
"Y c #F3000A",
"T c #FA000D",
"R c #E40212",
"E c #EA0111",
"W c None",
/* pixels */
"WWWWWWWWWWWWWWWWWWWWWWWWWWWWWWWWWWWWWWWWWWWWWWWWWWWWWWWWWWWWWWWW",
"WWWWWWWWWWWWWWWWWWWWWWWWWWWWWWWWWWWWWWWWWWWWWWWWWWWWWWWWWWWWWWWW",
"WWWWWWWWWWWWWWWWWWWWWWWWWWWWWWWWWWWWWWWWWWWWWWWWWWWWWWWWWWWWWWWW",
"WWWWWWWWWWWWWWWWWWWWWWWWWWWWWWWWWWWWWWWWWWWWWWWWWWWWWWWWWWWWWWWW",
"WWWWWWWWWWWWWWWWWWWWWWWWWWWWWWWWWWWWWWWWWWWWWWWWWWWWWWWWWWWWWWWW",
"WWWWWWWWWWWWWWWWWWWWWWWWWWWWWWWWWWWWWWWWWWWWWWWWWWWWWWWWWWWWWWWW",
"WWWWWWWWWWWWWWWWWWWWWWWWWWWWWWWWWWWWWWWWWWWWWWWWWWWWWWWWWWWWWWWW",
"WWWWWWWWWWWWWWWWWWWWWWWWWWWWWWWWWWWWWWWWWWWWWWWWWWWWWWWWWWWWWWWW",
"WWWWWWWWWWWWWWWWWWWWWWWWWWWWWWWWWWWWWWWWWWWWWWWWWWWWWWWWWWWWWWWW",
"WWWWWWWWWWWWWWWWWWWWWWWWWWWWWWWWWWWWWWWWWWWWWWWWWWWWWWWWWWWWWWWW",
"WWWWWWWWWWWWWWWWWWWWWWWWWWWWWWWWWWWWWWWWWWWWWWWWWWWWWWWWWWWWWWWW",
"WWWWWWWWWWWWWWWWW-mEEYEERG0WWWWWWWWWWWWW,mREYEEKc+WWWWWWWWWWWWWW",
"WWWWWWWWWWWWWWW*ATTTTTTTTTYH0WWWWWWWWW2STTTTTYTTTEn@WWWWWWWWWWWW",
"WWWWWWWWWWWWWWfYTTTTYYYYYYTTYbWWWWWWWmTTYUACCVCCUYTI:WWWWWWWWWWW",
"WWWWWWWWWWWWWdTTYYYYYYUUUUYTTTMWWWWWDTTEAzllllllzVITE>WWWWWWWWWW",
"WWWWWWWWWWWWsTTTYYYYYYYUIUIIYTYbWWWmTYIVllllllllllzAYI+WWWWWWWWW",
"WWWWWWWWWWW@YTYUYYYYYYYUPUPPPYTU0W2TTZBzzlllllllllllVUFWWWWWWWWW",
"WWWWWWWWWWWnTYUUYYYYYYYUUUPPZPYTM7JTPBBzzllllllllllllVU2WWWWWWWW",
"WWWWWWWWWWWYTUUUUYYYYYYYUUPZZPZYYGYUVBzzzlllllllllllllCJWWWWWWWW",
"WWWWWWWWWWsTYUUUUYYYYYUUUUPPZCCPTTYCBBBzBlzlllllllllllzI3WWWWWWW",
"WWWWWWWWWWNTUPUUUUUYYUYUUPPPPCCCUTIBVBzzzllllllllllllllCaWWWWWWW",
"WWWWWWWWWWHTUZPIUUUUUUUUUIPPZZCCIYAVBBBzzllllllllllllllBcWWWWWWW",
"WWWWWWWWWWJTIZZIPUUUUUPPIPPZZCCCCSVVBBBzzllllllllllllllldWWWWWWW",
"WWWWWWWWWWHTZZPIPPPUPUUPPPZPZZCCVVVBBBBzllllllllllllllllaWWWWWWW",
"WWWWWWWWWWGYCZZZPPPPPPPPZZPCCCCCVVVVBBzzllllllllllllllll1WWWWWWW",
"WWWWWWWWWWNYCCZZZPPZPZPZPZCZCCCCVVVBBzzzllllllllllllllll*WWWWWWW",
"WWWWWWWWWWvYCCCZZZZPZPPPPCZCCCCVCVVBBBzllllllllllllllllx@WWWWWWW",
"WWWWWWWWWW1UZCCCCZCZZZZCZZCCCCCVVVBBBBzzlllllllllllllllxWWWWWWWW",
"WWWWWWWWWW3RZVCCCCCZZCCCCCCCCVVVVVBBzzzllllllllllllllllkWWWWWWWW",
"WWWWWWWWWWWLZVVCCCCCCCCCCCCCCVVVBVBBBlzllllllllllllllllfWWWWWWWW",
"WWWWWWWWWWWbIVVVCCCCCCCCCCVVVVVVBBBBzzlllllllllllllllll:WWWWWWWW",
"WWWWWWWWWWW8IVVVCVVVCVCCCVCVVVBVBBBzzzllllllllllllllllkoWWWWWWWW",
"WWWWWWWWWWWWnVBVVVVVVVVVVVVVVBBBBBBzzllllllllllllllllxwWWWWWWWWW",
"WWWWWWWWWWWW0BBVBVVVVVVVVVVBVBBBBBzzlllllllllllllllllu&WWWWWWWWW",
"WWWWWWWWWWWWWdxBBBBVVVVVBVBBBBBBzzzzllllllllllllllllx=WWWWWWWWWW",
"WWWWWWWWWWWWW>uxBBBBBBBBBBBBBBBzzzlllllllllllllllllly&WWWWWWWWWW",
"WWWWWWWWWWWWWWiuzBBBBBBBBBBBBzzzzllllllllllllllllllg=WWWWWWWWWWW",
"WWWWWWWWWWWWWW3wtlzzBzzzlzzzzzzlllllllllllllllllllkeXWWWWWWWWWWW",
"WWWWWWWWWWWWWWW9qtlBzzzBzBzlzllllllllllllllllllllhr*WWWWWWWWWWWW",
"WWWWWWWWWWWWWWWW<qtlzlllllzllllllllllllllllllllllt=WWWWWWWWWWWWW",
"WWWWWWWWWWWWWWWWO<qulllllllllllllllllllllllllllxtwXWWWWWWWWWWWWW",
"WWWWWWWWWWWWWWWWW5qqtlllllllllllllllllllllllllltq-WWWWWWWWWWWWWW",
"WWWWWWWWWWWWWWWWWW:qqtlllllllllllllllllllllllltq;WWWWWWWWWWWWWWW",
"WWWWWWWWWWWWWWWWWWW:qqtxllllllllllllllllllllltq;WWWWWWWWWWWWWWWW",
"WWWWWWWWWWWWWWWWWWWW:qqykllllllllllllllllllxtq;WWWWWWWWWWWWWWWWW",
"WWWWWWWWWWWWWWWWWWWWW:qqyhllllllllllllllllkyq;WWWWWWWWWWWWWWWWWW",
"WWWWWWWWWWWWWWWWWWWWWW*=qeghlllllllllllllgqw6WWWWWWWWWWWWWWWWWWW",
"WWWWWWWWWWWWWWWWWWWWWWW@<qqtxlllllllllzhrqw#WWWWWWWWWWWWWWWWWWWW",
"WWWWWWWWWWWWWWWWWWWWWWWW ,eerhxllllllxgeq<XWWWWWWWWWWWWWWWWWWWWW",
"WWWWWWWWWWWWWWWWWWWWWWWWWW8weqrhlllxgeew5WWWWWWWWWWWWWWWWWWWWWWW",
"WWWWWWWWWWWWWWWWWWWWWWWWWWWO,wqeukgeqq,oWWWWWWWWWWWWWWWWWWWWWWWW",
"WWWWWWWWWWWWWWWWWWWWWWWWWWWWW4wqqeqqi#WWWWWWWWWWWWWWWWWWWWWWWWWW",
"WWWWWWWWWWWWWWWWWWWWWWWWWWWWWW ;wq=&WWWWWWWWWWWWWWWWWWWWWWWWWWWW",
"WWWWWWWWWWWWWWWWWWWWWWWWWWWWWWWWW.WWWWWWWWWWWWWWWWWWWWWWWWWWWWWW",
"WWWWWWWWWWWWWWWWWWWWWWWWWWWWWWWWWWWWWWWWWWWWWWWWWWWWWWWWWWWWWWWW",
"WWWWWWWWWWWWWWWWWWWWWWWWWWWWWWWWWWWWWWWWWWWWWWWWWWWWWWWWWWWWWWWW",
"WWWWWWWWWWWWWWWWWWWWWWWWWWWWWWWWWWWWWWWWWWWWWWWWWWWWWWWWWWWWWWWW",
"WWWWWWWWWWWWWWWWWWWWWWWWWWWWWWWWWWWWWWWWWWWWWWWWWWWWWWWWWWWWWWWW",
"WWWWWWWWWWWWWWWWWWWWWWWWWWWWWWWWWWWWWWWWWWWWWWWWWWWWWWWWWWWWWWWW",
"WWWWWWWWWWWWWWWWWWWWWWWWWWWWWWWWWWWWWWWWWWWWWWWWWWWWWWWWWWWWWWWW",
"WWWWWWWWWWWWWWWWWWWWWWWWWWWWWWWWWWWWWWWWWWWWWWWWWWWWWWWWWWWWWWWW",
"WWWWWWWWWWWWWWWWWWWWWWWWWWWWWWWWWWWWWWWWWWWWWWWWWWWWWWWWWWWWWWWW",
"WWWWWWWWWWWWWWWWWWWWWWWWWWWWWWWWWWWWWWWWWWWWWWWWWWWWWWWWWWWWWWWW",
"WWWWWWWWWWWWWWWWWWWWWWWWWWWWWWWWWWWWWWWWWWWWWWWWWWWWWWWWWWWWWWWW"
};
