/* XPM */
static char *f7794cc5075e4904c53e66a54340ee4d2AqQUOthzxMx0eEk[] = {
/* columns rows colors chars-per-pixel */
"64 64 202 2 ",
"   c None",
".  c #363835",
"X  c #4B2E19",
"o  c #4F2B16",
"O  c #54321B",
"+  c #5D311C",
"@  c #5C391C",
"#  c #542D19",
"$  c #62351E",
"%  c #683A1E",
"&  c #41372C",
"*  c #46392B",
"=  c #4C3C2E",
"-  c #453425",
";  c #5A3C29",
":  c #4D3C30",
">  c #433C36",
",  c #533D33",
"<  c #653520",
"1  c #6A3622",
"2  c #643B23",
"3  c #6D3A23",
"4  c #733C25",
"5  c #793E27",
"6  c #7B3E29",
"7  c #743A28",
"8  c #3D423F",
"9  c #4D433A",
"0  c #4A4135",
"q  c #524231",
"w  c #5A4631",
"e  c #584837",
"r  c #694227",
"t  c #6B462C",
"y  c #744122",
"u  c #7B4226",
"i  c #7C4A25",
"p  c #73432A",
"a  c #7E422A",
"s  c #7E4A2B",
"d  c #774D2E",
"f  c #654E37",
"g  c #664837",
"h  c #704D34",
"j  c #77523E",
"k  c #3E4441",
"l  c #424644",
"z  c #444946",
"x  c #4F4941",
"c  c #464C49",
"v  c #494E4B",
"b  c #534D45",
"n  c #4D524E",
"m  c #52544E",
"M  c #5B5247",
"N  c #4F5451",
"B  c #515551",
"V  c #555A55",
"C  c #595C56",
"Z  c #5A5E59",
"A  c #575D59",
"S  c #63594E",
"D  c #695E53",
"F  c #725843",
"G  c #5C615B",
"H  c #6D6257",
"J  c #61645D",
"K  c #6F655D",
"L  c #716459",
"P  c #5F6460",
"I  c #636761",
"U  c #656A63",
"Y  c #6A6D65",
"T  c #6B6D6A",
"R  c #676D68",
"E  c #6D7167",
"W  c #6D726A",
"Q  c #72766C",
"!  c #75796E",
"~  c #787B6F",
"^  c #707267",
"/  c #757574",
"(  c #757A71",
")  c #7A7D74",
"_  c #797E79",
"`  c #7A7673",
"'  c #84442C",
"]  c #88472D",
"[  c #834C2A",
"{  c #8B4B2D",
"}  c #914D2F",
"|  c #845229",
" . c #8C542C",
".. c #8D5A2D",
"X. c #92532F",
"o. c #985B2F",
"O. c #8E4A31",
"+. c #884731",
"@. c #934C32",
"#. c #9A4F36",
"$. c #8D5132",
"%. c #855A3C",
"&. c #945432",
"*. c #9B5334",
"=. c #965933",
"-. c #9C5B34",
";. c #9D5439",
":. c #9E5A38",
">. c #935E3A",
",. c #A15635",
"<. c #A35C36",
"1. c #A55B3A",
"2. c #AA5D3A",
"3. c #A5563C",
"4. c #9E6333",
"5. c #9E6932",
"6. c #A36335",
"7. c #AA6437",
"8. c #A46B35",
"9. c #AB6D37",
"0. c #A5633A",
"q. c #AC633B",
"w. c #AC6C39",
"e. c #B2653C",
"r. c #B46B3C",
"t. c #BA6D3D",
"y. c #AD7137",
"u. c #AE7138",
"i. c #B4733B",
"p. c #B9723D",
"a. c #B77B3D",
"s. c #8A5C40",
"d. c #B25D41",
"f. c #AD6440",
"g. c #B56742",
"h. c #B56B40",
"j. c #BB6D41",
"k. c #BB6545",
"l. c #BD7242",
"z. c #BB7440",
"x. c #A67452",
"c. c #BA7F56",
"v. c #857162",
"b. c #807F7E",
"n. c #C56D49",
"m. c #C06F43",
"M. c #C27444",
"N. c #C57A45",
"B. c #CA7D47",
"V. c #C77A48",
"C. c #CC7E48",
"Z. c #C77548",
"A. c #D17D4D",
"S. c #7A8077",
"D. c #7E8176",
"F. c #7D8076",
"G. c #7D8279",
"H. c #7E837A",
"J. c #C2823E",
"K. c #808276",
"L. c #81857A",
"P. c #82867C",
"I. c #81857B",
"U. c #85897E",
"Y. c #84887F",
"T. c #C58442",
"R. c #CC8246",
"E. c #CB8B46",
"W. c #CE8149",
"Q. c #C98B46",
"!. c #D2844B",
"~. c #D8874F",
"^. c #D6894D",
"/. c #D98C4E",
"(. c #D18F47",
"). c #CF9047",
"_. c #D1904A",
"`. c #DB934D",
"'. c #DD9A4E",
"]. c #D98651",
"[. c #DC8C51",
"{. c #DE9351",
"}. c #E08E54",
"|. c #E19354",
" X c #E39A55",
".X c #E89A59",
"XX c #7F8780",
"oX c #818582",
"OX c #858A81",
"+X c #858A81",
"@X c #8A8E84",
"#X c #8F8F8E",
"$X c #8A9087",
"%X c #8E9289",
"&X c #91968C",
"*X c #8D8F90",
"=X c #9C9D9D",
"-X c #969595",
";X c #B49784",
":X c #A2A1A0",
">X c #BCB7B3",
",X c #C5A694",
/* pixels */
"                                                                                                                                ",
"                                                        G G G G Z G G P G                                                       ",
"                                                      W +XOX+XY.+X+X+X+XH.I                                                     ",
"                                                    N +XP.P.Y.P.P.H.( ( ( W v                                                   ",
"                                                    n H.) D.K.F.G.) T U T G k                                                   ",
"                                                    z W ) ) ~ ) G.) Y U E V                                                     ",
"                                                      I ( ) ~ ) D._ W Y U v                                                     ",
"                                                      G ) ( S.Q ) ) Q W E c                                                     ",
"                                                G J N B W ) ) Q _ ) ~ ! R N R P                                                 ",
"                                J G         G Q H.H.R c Y ! W U ~ ) ) ) P G $XOXH.W B       ) R                                 ",
"                              W H.( m   N ( S.( Q W E z G ) ! ( ) ! ) ) G W H.W W S.H.G 9 E U.U.)                               ",
"                            ) G.( S.E G W +X) ( ( Q W N J P.H.H.b._ ) ! G S.( Q W E S.R J U.$XU.P.E                             ",
"                          W ) ( ! ( Q W G ( G.) S.S.W G P Q ( ( ) ) ( W Z _ ( ( Q Q E m ! $XU.U.K.) J                           ",
"                        V S.Q ( ( ) ( S.P G ) ( S.U C x x H K H H L D C b Y E ( Q ~ G U U.U.U.U.U.P.) G                         ",
"                          G Q ! ! ! ! ! S.A U W D w $ s +.=.:.s 2.f.:.$.@.3 g D U U A U.L.L.K.S.P.P.G                           ",
"                            A ) ( ! Q ) S.U > w u $.=.0.1.1.q.[ r.g.q.q.q.2.:.s g 0 R @XK.K.L.K.) G                             ",
"                          n C C ( ( ! ) W 9 O &.f.4.:.f.w.f.h.$.c.n.l.g.j.f.h.q.s p M / ( ) P.) C J m                           ",
"                          ( H.G I ( ^ U 9 2 s 4.h.f.0.h.l.l.M.>.W.!.V.V.V.l.z.f.$.f.p 9 Z W W V T P.U                           ",
"                        U Y.S.) n J G 9 2 ..$.4.l.h.z.l.V.V.C.4./.~.~.W.W.V.W.l.&.l.0.p 9 B n Q P.H.D.C                         ",
"                      N ( ) ! ) U c > r =.6.&.f.V.l.V.W.W.W.W.8.{.[.~.!.!.W.!.c.4.C.h.q.p * I U.P.U.P.Q n                       ",
"                      J ~ ~ S.G.( x 2 =.q.w.-.h.W.W.W.!.!.^.!.y..X{./.^.^.^.[.W.0.~.l.l.f.t M ~ D.P.G.~ G                       ",
"                    n B E ! ~ S.Z ; &.q.h.z.4.z.[.W.W.^./.~.^.w..X{./.~.!.!.!.!.w.[.W.l.l.0.2 J K.) ! W m c                     ",
"                    ( U G J Q ) q [ 0.h.l.z.w.z./.W.^././././.u. X{./.^.!.!.^.!.h.{.W.V.l.z.1.f Y ^ J G J A                     ",
"                    Q ) ) ( K J r -.w.l.C.R.w.T./.W.^././.~.[.w.{.{.~.W.^.!.!.E.y./.^.W.V.z.h.d m G ! ! ! J                     ",
"                  Q ! ! ! ~ W ,  .0.h.C.W.W.u.Q.[.^././.^.~.^.u..X/.!.W.^.!.^.W.y._.^.R.R.z.h.=.q E ~ ! ! ^ C                   ",
"                  V ~ Q ! ^ E f -.w.M.C.W.W.i._.[.^.{./.^.~.!.w.'./.^.W.W.!.^.W.y.`.W.R.C.N.z.h.j Y Q Q Q ~ V                   ",
"                  m ~ ! Q Q J j w.z.V.W.W.^.u.).[.^.{.[.!.!.W.u.'./.W.W.!.!.!.^.y.`.W.W.N.V.z.i.%.J ^ Q ! ~ B                   ",
"                  m J J J G e X.z.l.C.W.!.^.z.).`.^./.!.!.!.W.y..X[.^.!.!.!.[.E.u.`.^.W.R.R.l.z.0.e G J J J m                   ",
"            n E P.G.H.XX_ T q 6.C.W.!.^././.z._.|.^./.^.R.!.W.9.'.[./.!.^.[.[._.y.'.^.^.^.!.R.V.0.: U ( / T ) $XU.Q c           ",
"            V W ) _ ( ) oXW w r.A.!.!.^./.[.z./.|.!.^.^.!.^.^.i.{.[.`./.^.[.{.^.z. X^.^.!.^.W.R.w.e W H._ U.+XD.( Y z           ",
"            U S.( ( Y Y / U w i.W.W.!.^./.[.i._.|.~.!.!.^.!.^.p.'.[./././.[.[.!.u. X~.!.!.^.^.W.i.f W ( _ K.L.~ ! Y z           ",
"            T H.( K.K.) E U w p.W.!.!./.~./.i.(.}.~.!.!.!.W.^.y.`././.{./.~.~.E.z..X^.E.W.^.W.~.z.f _ ( ) K.K.) ) Y z           ",
"            Y _ ) _ P.P.~ U w i.C.!.!./.~./.i._.|.!.!.!.!.!.^.y.`.(.[.{.^.^.^.W.i. X^.!.!.!.!.!.R.f H.~ ~ ) K.) ) Y z           ",
"            G ( ) ) ) D.b.J w i.C.W.!./.!.!.i._.|.!.!.!.J.!.!.t.'.~.^.[.[.!.!.R.i..X!.!.R.!.!.^.J.h XXS.) _ _ ) ~ U z           ",
"            C ^ Y Y E ^ ~ J w i.B.C.W.~.!.~.t.).}.C.!.C.~.A.J.t.'.^.!.{.[.!.~.C.i. X!.!.R.!.R.^._.f S.S.Q ^ ! E Y J l           ",
"            B U J J J J E G w t.C.C.W.~.!.~.i.(.|.C.!.A.J.!.J.7.'.~.^.~.[.!.~.R.i..X!.R.!.!.W.^.).e E W U U U J Z B l           ",
"            z v v v v n n c w i.!.!.!.!.!.!.i.(./.C.!.W.!.B.!.4.`.].!.!.~.!.!.W.i. X!.C.B.!.C.^.Q.w c v n n v c z l l           ",
"                  C I.@XP.U w w.!.C.!.!.A.!.9.R./.C.B.R.W.W.W.7.{.~.C.!.!.W.!.N.9.'.B.B.B.C.!.!.Q.w U P.$X) B                   ",
"                  I $X$XK.E w p.!.C.R.!.C.!.9.R./.R.B.R.B.W.J.o.`.~.W.W.!.C.!.N.6.{.B.B.B.C.C.!.T.e H.G.( T B                   ",
"                  Z P.@X) E w p.R.!.!.!.!.!.t.J./.C.!.C.!.!.~.7./.!.C.C.!.W.C.B.y.`.N.B.N.C.B.A.T.w oX) ( ( C                   ",
"                  V ! K.K.^ w p.!.C.!.!.!.!.p.J.~.W.W.W.W.W.R.9.`.A.C.W.W.W.B.N.i.`.N.M.k.t.t.Z.T.f XX( ! ! C                   ",
"                  V Q ) K.Y w p.C.!.C.!.R.C.p.(.~.W.W.!.W.W.R.t./.C.C.W.B.C.C.B.y.{.N.x.;X,X,Xc.T.f / W U E V                   ",
"                  C Q ) ! J w i.B.C.R.!.R.!.t.E.~.W.W.W.W.~.W.9.`.A.C.W.C.B.C.R.8.`.t.j b.=X*Xx.Q.f W E J I B                   ",
"                  V Q Y K G w i.B.C.!.C.C.!.6.J.A.W.W.W.W.W.B.<./.A.B.W.!.W.W.R.5.`.r.- l -Xm s.J.g U W I I B                   ",
"                  n G G B x w p.W.W.C.W.B.!.7.J.~.J.~.W.A.~.W.4.`.!.C.W.!.!.!.C.8.'.q.K / %X=Xv.8.q A G G G n                   ",
"            z N V B V V N c w i.W.B.W.W.R.!.9.Q.~.!.!.W.J.].J.9.{.~.R.W.!.W.!.C.8.'.%.:XZ V T >X>.q n B V V B N V B c           ",
"            A OX$X%X&X&X$X( w i.C.C.B.N.B.W.r.Q.}.!.!.~.~.~.W.6.{.^.R.W.!.W.!.C.5.`.h / . . . #Xd q H.OXU.U.P.G.G.W z           ",
"            G K.~ ! ) S.) I w i.W.C.B.B.N.W.6.T.}.A.!.J.A.A.R.o./.^.C.R.W.W.!.C.8.`.t T D A 8 ` r q S.U U ^ ) K.K.Y l           ",
"            I _ ) _ K.~ ! I w r.C.C.C.B.Z.C.4.a.].C.!.!.B.!.W. .~.~.B.B.!.C.B.N.8./.t W b.T ` Y @ q S.U U Q U.@Xb.K z           ",
"            U S.) P.K.Q Q J w w.C.B.Z.N.m.B.o.a.].A.C.C.B.R.!.X.A.J.N.B.B.B.B.M.../.| & T b.U = $ q H.) ^ ~ K.K.~ E c           ",
"            Y P.) K.K.! E U w r.Z.N.m.m.t.m.X.a.].B.Z.C.B.B.B.o.^.C.M.N.B.N.N.p...!. .$ X X O [ 5.0 XXH.D.) ) ) ~ E v           ",
"            G K.~ K.K.! Q G w e.Z.M.m.m.t.t.[ i.A.M.M.B.B.M.M. .~.C.p.m.N.m.M.t...R.q.j.M.j.l.B.a.= S.H.K.~ P.) W U c           ",
"            G _ ) ) ( Y Y G w 7.m.m.j.e.e.t.| i.A.n.m.B.m.m.M.| !.M.t.t.m.t.m.e.| B.7.p.p.t.<.t.i.* E S.D.! ) D.E G k           ",
"            v J J Z B V A n w q.m.t.e.e.e.7.[ y.n.t.t.M.m.t.t.[ R.t.7.7.e.e.t.2.| M.<.<.2.-.-.<.9.* c A C A G A v z 8           ",
"            l c z v J Y I V , ,.e.2.,.2.3.2.[ y.n.e.e.m.e.e.t.[ N.t.<.<.2.7.q.<.i m.} o.-.{ { -.9.* N I R U N l . .             ",
"                  C ) b.L.W , O.,.,.,.,.,.,.y 9.n.2.2.e.2.e.e.' M.e.<.,.2.<.2.,.i t.} } X.] { X.6.- ( H.G.S.C                   ",
"                  C ^ ( ) W , } *.@.,.*.*.*.y 6.k.2.<.2.2.2.q.i M.7.,.*.,.,.,.*.i e.] a a p ' { 6.= H.! Q Q V                   ",
"                  C ~ ! Q W : ] @.@.@.@.} } 3 X.2.@.#.,.,.3.<.u t.,.*.} *.} } } y <.' u u u u ] o.w XX( ! ( C                   ",
"                  G _ Q Q Y = a ] ] ] O.] ] $ X.3.@.} @.@.@.*.y 2.#.] ] ] ] ] ] % *.u 4 u u u u { * ( ( ! ! G                   ",
"                  G F.Q ! Y = 5 ' 6 a ' a 6 $ { #.] ' @.@.@.O.3 3.@.' u ' ' ' u $ @.4 4 4 5 4 u ' . W ! ! ) J                   ",
"                  A ! Y U Z : 5 u 7 5 6 7 4 + ' #.6 ' +.O.] ' 4 3.+.6 4 5 ' 5 5 + ' 7 3 4 4 4 4 i * K ! S.P.J                   ",
"                  V Y I I V : 7 7 4 4 5 4 1 + a @.6 6 6 ] 6 ' 3 3.' 5 4 7 6 7 7 # 6 4 1 3 4 3 3 u - G Q ! S.G                   ",
"                  z v v c k = < 1 1 < 1 < $ O 3 6 3 7 1 4 3 4 < ' 7 1 1 1 1 % < o 4 $ + + $ $ + % & z n n n c                   ",
"                                                                                                                                "
};
