/* XPM */
static char *result[] = {
/* columns rows colors chars-per-pixel */
"64 64 236 2 ",
"   c #591B00",
".  c #5C2400",
"X  c #5D2A00",
"o  c #562700",
"O  c #632500",
"+  c #642C01",
"@  c #6B2D01",
"#  c #6C2E0B",
"$  c #682705",
"%  c #722E06",
"&  c #653104",
"*  c #6C3304",
"=  c #66320A",
"-  c #6C340A",
";  c #6D3A0B",
":  c #693906",
">  c #723404",
",  c #743A05",
"<  c #7A3B06",
"1  c #73350A",
"2  c #743B0C",
"3  c #7B3C0C",
"4  c #7B3705",
"5  c #6D3A11",
"6  c #6C3111",
"7  c #743C13",
"8  c #7B3D12",
"9  c #743412",
"0  c #6D2C10",
"q  c #75420D",
"w  c #7C420C",
"e  c #7F4307",
"r  c #754113",
"t  c #7C4313",
"y  c #7C441A",
"u  c #7C491B",
"i  c #7A4617",
"p  c #6E4213",
"a  c #7E4B21",
"s  c #813C0B",
"d  c #803E02",
"f  c #823F17",
"g  c #82440D",
"h  c #8D4A0E",
"j  c #86450A",
"k  c #834513",
"l  c #8A4612",
"z  c #844A15",
"x  c #8B4B15",
"c  c #84461A",
"v  c #844A1B",
"b  c #8B4D1B",
"n  c #8E4719",
"m  c #914D13",
"M  c #924E1A",
"N  c #8E5014",
"B  c #8C521C",
"V  c #86531C",
"C  c #93531D",
"Z  c #98551B",
"A  c #965A1D",
"S  c #9B591C",
"D  c #935416",
"F  c #A15C1F",
"G  c #AA671D",
"H  c #844B22",
"J  c #8B4E22",
"K  c #894629",
"L  c #974F21",
"P  c #865123",
"I  c #8B5322",
"U  c #8D562D",
"Y  c #8C5928",
"T  c #935524",
"R  c #995621",
"E  c #955A24",
"W  c #9B5B24",
"Q  c #945629",
"!  c #955B2B",
"~  c #9B5D2A",
"^  c #9A572C",
"/  c #9D5E32",
"(  c #975C34",
")  c #A25E2A",
"_  c #A35D24",
"`  c #A05D30",
"'  c #9D6126",
"]  c #96622B",
"[  c #9D622C",
"{  c #9E682D",
"}  c #946027",
"|  c #9C6433",
" . c #9B6638",
".. c #9D693C",
"X. c #986434",
"o. c #A36324",
"O. c #AD6922",
"+. c #A3642C",
"@. c #A9652D",
"#. c #A4692D",
"$. c #AB6B2D",
"%. c #A96325",
"&. c #B16F2E",
"*. c #B8782B",
"=. c #A36433",
"-. c #AA6633",
";. c #A46A34",
":. c #AB6C34",
">. c #A36539",
",. c #A46C3B",
"<. c #AB6D3A",
"1. c #A96639",
"2. c #B16E35",
"3. c #B26E3A",
"4. c #AD7134",
"5. c #A5723D",
"6. c #AC723C",
"7. c #B47334",
"8. c #BB7435",
"9. c #BB7B35",
"0. c #B4743C",
"q. c #BC753B",
"w. c #B57A3D",
"e. c #BC7B3C",
"r. c #B67B35",
"t. c #AE722A",
"y. c #C27734",
"u. c #C37C35",
"i. c #C27C3C",
"p. c #C97E3D",
"a. c #C57A38",
"s. c #AC6D43",
"d. c #A66E41",
"f. c #A57343",
"g. c #AD7342",
"h. c #AE7847",
"j. c #B37542",
"k. c #BA7643",
"l. c #B57A43",
"z. c #BC7C43",
"x. c #B3764A",
"c. c #B47C4A",
"v. c #BA7D4B",
"b. c #BC7E53",
"n. c #B26E41",
"m. c #C37D43",
"M. c #C37E4A",
"N. c #C67C42",
"B. c #C77F51",
"V. c #BE8233",
"C. c #BD813B",
"Z. c #C48235",
"A. c #C4833C",
"S. c #CA833D",
"D. c #C5883D",
"F. c #CC8A3D",
"G. c #C88036",
"H. c #D1883C",
"J. c #BD8244",
"K. c #BD824B",
"L. c #B68047",
"P. c #BC8353",
"I. c #BD8952",
"U. c #BD8C5C",
"Y. c #B58054",
"T. c #BF8E63",
"R. c #C48344",
"E. c #CA8444",
"W. c #C68944",
"Q. c #CB8944",
"!. c #C3844B",
"~. c #CB854B",
"^. c #C5894D",
"/. c #CB8A4C",
"(. c #D18644",
"). c #D28D43",
"_. c #D28C4D",
"`. c #D78A49",
"'. c #CC914B",
"]. c #DA9345",
"[. c #D4914D",
"{. c #DD944D",
"}. c #D09144",
"|. c #C28553",
" X c #CA8652",
".X c #C58A53",
"XX c #CC8C53",
"oX c #C28B5B",
"OX c #CB8D5A",
"+X c #C78459",
"@X c #D38E53",
"#X c #D38E5A",
"$X c #D28654",
"%X c #CE9154",
"&X c #CD935C",
"*X c #C69258",
"=X c #D39254",
"-X c #DA9454",
";X c #DA9A54",
":X c #D3945A",
">X c #DB955B",
",X c #D4995C",
"<X c #DB9A5D",
"1X c #D59B54",
"2X c #E5954C",
"3X c #E49C5B",
"4X c #E69B55",
"5X c #DCA459",
"6X c #F3A95B",
"7X c #C78F61",
"8X c #C59166",
"9X c #CE9A62",
"0X c #C99464",
"qX c #D49662",
"wX c #DA9662",
"eX c #D59B63",
"rX c #DB9C63",
"tX c #DB9C6B",
"yX c #D29D6C",
"uX c #CB9D79",
"iX c #CD9C74",
"pX c #DD9F70",
"aX c #E39D62",
"sX c #E39D6B",
"dX c #DBA264",
"fX c #DCA16B",
"gX c #D7A067",
"hX c #D5A377",
"jX c #E2A166",
"kX c #E5A56C",
"lX c #EAA668",
"zX c #E9A873",
"xX c #F2A667",
"cX c #D9A983",
"vX c #EEBD94",
"bX c #F0C197",
/* pixels */
"].].].2X2X2X4X6X6X6XF.G G O.$.x @ % - X V 1X5XV.V.F.F.4XxX3X2X2XH.*.O.O.S g %   O @ 3.=X).F.}.].4X4X4X{.4X].G.G O.r.:.z + + # # ",
"H.F.F.G.p.S.H.].2XH.Z.1XlX1X-X!.T # * 2 ;.dX'.*.V.Z.F.Q.(.E.p.(.H.H.}.;X>Xv./ $ % 1 k.XXD.A.G.F.F.(.E.p.(.].{.;X;X<XXXx.! = 9 a ",
"A.A.Z.y.y.a.p.S.S.C.*.W.^.R.XX#Xj.8 - t { '.C.r.R.).Q.i.m.i.a.a.H.].E.q.OXqXx.9 = 2 6.K.r.C.D.W.E.E.N.E.N.i.9.S.~./.|.|.d.+ 0 6 ",
"C.A.C.i.i.i.N.N.S.R.W.J.w.l.|.OXb.c + : Y L.C.I.Q.m.R.m.M.~.N.q.G.Q.m.w.+X0Xb.f 2 t 5.L.l.J.W.W.!.~.~. XQ.S.i.i.R.!.!.|.x.y #   ",
"6.w.w.z.z.q.0.2.4.4.4.L.l.E [ g.>.8 + O t ;.4.R.w.:.q.3.k.M.k.k.z.!.w.4. . .! 7 & : P ;.5.w.L.z.0.j.k.k.0.q.e.q.2.+.| >./ H 0   ",
"T ] =.<.3.3.-.+.{ { } ] Y : , i 2 1 # O - k b ~ +.:.1.<.s.1.1.<.:.{ V t - & - & : X + u E ] { ;.=.;.<.<.:.$.@.Z j 3 3 3 9 # X . ",
"; r c T ^ ) =.+.] [ V q q t 2 * > 2 8 c t > , g C ) / >.` ( ^ Q z 2 w t * X + - i i & & q r z I Q ~ | ` ' C g j j g < @ + = 7 c ",
"- - > 1 3 k l n z w q q } L.6.E ~ =.x.b.! @ > @ 1 3 8 b n c c 2 - u | w.6.{ I } h.c.P * & & - 2 t z k f g 4 < D 6.J.4.E Q ,.c.P.",
"% % f s s s n n x : * ! .XgX,X%X=X,XtXtX<.* @ > s < < g n B t , > ;.eX&XeX,X^.%XgXgX5.2 @ ; 3 2 g c x z g * < 4.1XdX&X%X%X&XgXdX",
"$ K n.n.3.N.N. X!.T 2 ,.&X.XR.^.%X'.^..Xl.x 3 W k.<.0.c.K.^.5.V z 5.gX'.W./.'./.%XK.,.3 > / j.<.j.z..XXXz.j e w.,X/.J.W.^.W.W.^.",
"% B.sXxXaX3X>X-X>X!.~ 3.jX^.R.C.Q.C.w.!.w.z g k.:X%X=X%X,XdX9XI.#.6.:X!.A.S.S.R.W.J.:.< n 7XzXtXwX=X/.=XdXw.N J.,X'.R.r.C.C.V.V.",
"$ B.#X>X2XN.(.`.:X#X=.W dXe.A.V.Z.Z.W.%XJ.C 3 z.m.E.~.W.W.'.%XK.E C R.R.i.Z.u.u.D.R.0.< k  XtX#X/./.e.~.<XXXN 7.^.R.D.9.A.D.D.C.",
"% n.q.y.y.a.p.(.~.!.W g %Xw.S.Z.Z.V.V.W.z.W 4 :.0.e.A.A.D.C.J.w.z x !.E.E.Z.u.Z.Q.Q.m.A n <.M.M.R.^.A.Q.W.!.g +.z.r.A.A.F.F.F.}.",
"n _ 3.a.S.G.H.S.~.M.^ w OX/.D.A.Z.t.*.r.w.:.x W e.R.A.Q.}.A.C.r.x C @XE.Q.G.u.A.Q.Q.!.7.b ~ |.!./.Q.'.Q.J..Xx +.R.A.E.S.Z.Z.Z.Z.",
"M x N.a.A.u.y.8.z.k.b c ^.%XR.D.V.V.W.^./.z.T M z.m.9.u.Z.9.A.7.z x m.N.~.G.y.u.A.R.R.l.x B !.!.e.r.A.A.z.k.3 Q !./.(.E.u.Z.u.u.",
"b b M.N.u.u.9.i.z.-.c 3 c.*XC.A.V.C.J.!.!.j.L M !.~.A.S.A.C.A.4.g k j.m.~.S.9.A.S.e.z.6.n b P.!.w.r.C.C.z.-.@ M v./._.Q.Z.G.H.H.",
", T L.w.C.W.A.e.K.g.c 8 c.I.C.C.C.C.J.K.v.` 3 b j.~.E./.D.S.C.+.< k 7.z./.E.i.R.R.z.z.| 2 I v.|.J.'.r.J.K.;.# Q k.z.R.~.E.S.S.A.",
"- z 5.C.C.R.C.J.!.6.J 8 c.K.I.J.C.K.!.x.,.J 1 c j.z.w.R.R.z.w.#.w k x.!.~.M.~.m.l.6.| c 2 H c..XI.C.C.L.!.x.3 b v. Xz.!.[.9.Z.e.",
"+ 2 E #.{ { $.l.|.l.^ % X.x..Xl.5.6.g.,.U 1 + 1 ~ :.W S $.&.J.J.B w =.K.k.<.v.j.g.,.P ; & r ! ,.{ { ;.C.v.b.k 8 k.+Xj.7.w.4.$.#.",
". : z z e e j W <.3.^ $ v  .l.;.[ E / ^ 9   + 2 3 A j j m m #.7.V , z <.;.=.<.>.| J 8 + + - 3 t w w t V ;.s.f # Q ,.<.:.;.#.E z ",
"B ] #.:.' N h h n M s $ 3 f ^ ;.W T Q c + + ! ,.E +.Z F F m h m < & , x T ` ` J J # - 1 H | / E A E B x C Q 1 O # k Q ;.;.~ z * ",
"XX,X%X<X3X=XR.7._ _ L s > @ 3 B n f 2 > 1 Q |.eX/./.E.=X-Xq.%.S j , < w k b b 8 8 O f / P.tXqXOX,X<X/.C.:.' k , 4 , k T I k 2 + ",
",X=XR.E.-X3X3X3X-X>XwX3.) -.) l > @ @ @ J K..XXX:X>X@XaXxX4X-X$XJ.$.+.:.W B , O > - ^ P.qXeX,X=X1X;X[.;X<X1XJ.w.;.+.~ b 2 @ @ @ ",
"/.Q.E.Q.[.).(.S.N.-XB.B.#XsXsX X~ 3 @ > | &XK.z.N.E.N.`.`.`.`.`.=X/.=XjXXX!.~ > - t l.qX%XK.R./.Q.9.Z.}.D.}.1X1X%X,XrX.X~ @ > 1 ",
"q.q.q.9.y.S.R.E.M.N.k.N.B.$X#XwX!.b @ @ ] oXI.^.J.!.~.E.N.N.8.8.q.R.J.!.K..Xg.2 + 2 ;.K.l.4.q.D.A.V.Z.D.V.C.W.Q.R.^..X|.<.1 1 1 ",
"!.z.~.E.R.E.i.q.i.B.#XB.B.B.k.x.|.T * - Y L.L.I.0.R.N.m.N.(.M.N.W.J.l.K.K.*XI.v - 5 ! L..XK.^.J.C.D.Q.9.D.*.t.r.z.^.b.b.s.8 - $ ",
";.<.0.0.7.7.m.7.1.k.1.M.k.=.| <.>.y & X : X.h.5.6.k.0.k.a.B.B.0.:.<.5.| X.d. .i = = 7 P X.,.5.l.w.0.7.r.e.4.@.#.:.>.>.s.( 0 0 # ",
"~ [ +.;.#.o.:.:.-.n.` ^ Q 8 1 > @ + & + X p Y Y | ;.~ R ) 3.R ~ <.{ b t ; = 5 = X 6 a a U X.X.<.0.4.o.$.:.@.~ M c 3 % 9 9 $ 0 0 ",
"1 2 3 V C A ' +.) ^ n # 8 3 , * * & r P 5 X : ; u z W ~ -.+.R Q B 2 : u 7 + X + 7 P 7 = 7 y v I [ { ~ +.W T b 4 4 8 1 1 9 8 K K ",
". + + - , w k k 4 % 1 J g.P.c.5.,.f.P.8Xf.5 & : & * 3 n k s 3 1 * t ,.I..X5.| ,.P.U.U = + : + * q g j k 4 > 4 Z <.B.n./ 1.x.b.B.",
"+ y c v g x A C f @ % x.fXfX9X&X,X&X0XyXh.; : q q 3 w Z R R 3 @ 2 5.eX,X,X^.&X,X9X&X| 2 - t t w N N x m > @ < z.wXsX,X.X+X:XqXqX",
"- s.v.v.6.l.XX:XM.T 3 v.qX!.J.^.,X%XI.|.f.q 2 | w.z.!.XX X#Xx.T B J.eXW.A.9./.%X!..X6.z n ;.l.J.K.!.R.R.k.A l !.<X/./.~.=X#XOXOX",
"2 b.qXrX^.XXrXjXkXOXZ :.%Xw.C.R.R./.M.M.0.k 2 v.wXrXaX>X X:XtX!.E #.=XR.i.y.i.m.M.~.k.l b B.wXwXwX>X,X>XzXM.n z._.m.q.q.C.R.R.e.",
"1 j.|.=XW.W./.R.@X>X+.S dXW.R.C.C.R.e.!.M.M % k.>X~.~.q.i.N.:XXXE A =X(.G.u.a.i.N.~.z.k n v.#X X~.~.~.$XwXXXg 3.@X/.i.r.A.r.q.A.",
"4 ) q.!.R.E.S.q.R.z.o.j <Xe.7.*.9.e.q.N.~.) d 3.=X8.q.a.>X>X/.!.] A _.Q.a.p.p.i.N.M.N.M l 3.~.a.q.i.N./.k.k.s -.XX~.N.E._.q.R.R.",
"4 D !.!.W.Q.i.e.R.$.W g -Xr.9.D.A.D.R.N.N.8.h F @X8.i.~.@XN.z.j.N T /.Q.H.S.N.a.q.m.M.3.M ) ~.q.q.i.m.m.~.3.4 -.M.m.m.N.E.i.i.8.",
"4 A M./.W.W.R.e.E.4.M < |.!.C.W.J.C.R.W.~.2.j m [.E.E.N.R.q.l.:.i k z.E.S.i.i.m.~.~.|.3.x )  XN.N.N.N.m. X0.< ) M.N.N.m.m.N.e.i.",
"< b j.z.w.w.z.R.!.6.k 3 v..Xz.^.R.0.0.m.~.:.d h R.m.!.R.m.J.|.g.k 3 0.R.R.N.q.z.XXOX+X:.g B M.z.k.m.R.m.!.0.< T v.!.!.m.m.!.!.~.",
"1 n j.K.z.J./.|.|.j.n 2 c.P.l.J.K.K.v.K.K.{ w x w.q.q.w.z.v.|.6.t c j.z./.@Xz.z.!..X|.| 3 I v.|.z.R.!.XXl.6.< V q.|.!.m.!.^. XXX",
"@ 8 <.P.K.K.!.v.!.|.P > h.I.K.c.L.K.L.x.,.B < Q !..X!.v.l.v.|.6.u k j.K.%XXXv.6.x.x.,.y @ J c.K.0.0.z.^.!.6.w z 6.XX^.J.z.w.l.w.",
"# f / 1.=.#.:.:.v.+XI > >.c.|.x.f.5.,.X.H : + 2 ~ :.[ { ' <.P.x.I t ) j.K.z.g.6.s.X.H - # v X.~ E { ;.J.^.L.g w ;.^.!.4.4.4.;.{ ",
"@ < k k s g g z T <.c @ J / ,.;.| ,.X.Y r X . * , < > w 3 C :.<.B , n [ +.#.;. .! v - . + 7 7 > < g g D ;.{ w > B ;.6.=.| 4.} z ",
"n 1.3.3.2.@.S x x k , @ > f k B ] | P 2 + : J ;.<.;.6.0._ D M x > O * 3 x E | ! v 1 + - U d. .[ 4.4.D x e w > * > z C ~ =.] c , ",
"k.$X>X@X[.[.=X'.R.-.R k s < 4 , w q : + r ..v.&XwXOX=XwX,X!.q.$.R s > > 4 3 k 2 8 * c >.|.OXOXOXdXdX'./.w.;.b < , < w q k i 2 + ",
"$X@X@X_.).[.{.;X;X-X~.N.m.k.:.A , + X : ! OXoX|.#X!./.>XaX>X@X@X_.M.7.2.@.W n @ 1 - =.|.0XOX%X:X,X=X_.-X<X,X!.l.l.l.<.T 2 @ + @ ",
"`.E.a.S.S.S.u.y.S.Q.@X=X-X>X;X/.' , @ 2 ,.eX!.z.!.m.E.~.~.~.E.E.@X-X<XrX:XM.` @ @ 2 v.+Xv.v..XXXR.W.W.e.R./.@X#X:XtXtX+X/ O # 1 ",
"M.a.8.p.E.S.Z.u.i.q.m./.~.R.[.%Xw.k * , | qX|.!.!.R.R.m.E.E.E.m.N.~./.~.XX X6.8 > 8 |.oXx.0.!.!.J.W._.R.q.e.z.z.z.|.oXOXg.7 1 9 ",
"m.a.q.i.S.S.A.i.m.i.z.~.~.z.e.z.l.z & X b v.l.K.z.z.m.m.N.E.E.R.e.z.q.z.M.OXv.b 1 1 ~ c.v.v.K.K.z.J.A.e.i.w.z.!.K.v.c.P.h.y 1 + ",
"` 3.q.3.7.&.7.7.:.:.=.=.~ R W =.| y + X 7 | ,.l.6.<.3.7.0.0.0.z.l.<.+.' +.| ^ 7 + + 6 P ,.6.5.l.J.w.$.4.t.#.[ ;.;.{ ] 5. .5 = X ",
"f Q ` ) ~ +.;.=.;.7.1.J t w 3 * . o + : 2 i I Q W [ =.:.:.:.;.+.E B c c < - O . = 5 5 y U X.X.;.6.#.D A 4.4.[ C u q p o o o X 5 ",
"# 3 k J C E E Q Q ^ c = - c v 2 t 2 u U r + - * , u Q ' #.;.~ c t t b V t : + + H U 5 = : r i P } } } ] ' V e : q q q p : p a a ",
"- + # 4 k g 3 3 1 > 1 H c.pX|.,.6.P.yXyX .& * + & , > > q t 2 + * Q v.OX.Xx.,.x.8X8X .p = & : : & q V z q * , [ I.*XI.5.L.U.T.T.",
"@ - c , g A @.~ c > @ s.pXkXqX#X<XqX:XpXP.c - - , > b E E E w @ > j.zX-X/.XX&X&X8XoXc.7 X + 5 ; X : , & & + z .X&X*X9XeX*XgX9X9X",
": ,..XXX/.=X-X:X X<.x n.wXOXN.M.~.m.z.!.6.8 , <..XXX,X,X,X=Xv.' C 6.rX'.E.E.~.^.|.|.g.t & ; 5 r & q 2 * 2 * w K.&X^.I.I.I.U.I.I.",
". U.qXkXlX,X=X;XkX%X~ ) OXm.q.q.q.q.R.!.0.n 8 v.yXrXeX%X%X,X=X!._ o.@XE.u.u.E.R.R.z.<.y t ,.b.v.l..X.X.X0.W j 0.^.W.W.C.J.J.C.C.",
"X P.K.XX/.A.i.~.rX%XW x XXm.a.a.a.a.~.|.!.~ 3 k.!.k.!.m.C.e.^.!.S Z ~.E.u.u.S.E.N.z.0.g n |.gXrX:XtXrXlX<X/.S t.e.W./.C.D.W.W.J.",
", 5.w.J.R.J.q.e.!.R.W g XXR.N.N.a.i.m.e.z.-.k -.M.z.R.J.R.w.m.z.M M ~.E.S.S.S.E.~.m.z.~ W M.@X!.E.@X~.E.-X;XG &.e.Q.E.*.9.S.R.E.",
"r B c.J.R.E.E.i.z.l.T 4 |.R.R.E.E.E.e.q.z.3.n ) !. Xr.q.i.q.R.q.x m ~.E.E.G.i.E.!.m.z.:.) 3.k.7.q.E.y.8.S.`.F &.i.S.i.*.9.S.S.S.",
"u z K.I.R.!.~.!.R.7.b 2 K.!.R.~.@XQ.R.R.~.q.M R M.#Xq.q.e.C.~.0.n x z.R.E.R.N.R.m.z.b.s.R $.~.N.i.E.S.u.E.~.m F e.S.i.i.S.R.S.R.",
"u A ^.!.z.e.e.!.!.<.z , z.!./.~.Q.i.R.~.!.3.M M k.~.m./.E.~.R.-.s g q.R.!.R.z.!.K.v.|.f.b ~ ~.~.~.Q.~.E.S.D.x Z 9.R.~.Q.A.r.A.S.",
"q Y L.L.R.w.q.z.J.6.b q l..X!.e.q.e.W.~.N._ s n 3.M.N.~.E.~.m.) s k k.P..X.XK.I.b.h.b...3 c 0.z.q.W.~.R.w.z.l N 0.^.XXW.6.z.w.e.",
"& q ] w.J.w.z.J.K.l.E w ;.K.z.7.r.J.9.r.-.h % f 3.N.k.q.3.E.!.0.b k s.c.I.oXU.b.Y.c...a ; P c.|.J.W.R.m.J.l.< k 5.K.^.K.0.^.l.4.",
"X q V E E A ' ;.6.L.{ t | w.J.0.J.7.o.' Z 4 % s L _ ) ) @.k.z.j.J c h.U.8X8XT.uXcXcXT. .a  .U.|.I.^.l.c.K.5.2 q ] 5.L.h.5.5.] B ",
"X : w w < < g A ;.;.Y & z E ;.#.t.o.D h s @ % s s s s 4 M ) -.;.y # d.hXvXbXcXuXcXT.cXcXcXhXhXU.L.K.c..X.X5.; & v X...f.5.} V q "
};
